<svg xmlns="http://www.w3.org/2000/svg" width="2400" height="2400" viewBox="0 0 2400 2400">
  <defs>
    <style>
      .cls-1 {
        fill: #0064a5;
      }

      .cls-2 {
        fill: #fff;
        fill-rule: evenodd;
      }
    </style>
  </defs>
  <rect id="矩形_1" data-name="矩形 1" class="cls-1" width="2400" height="2400"/>
  <path id="颜色填充_3_拷贝" data-name="颜色填充 3 拷贝" class="cls-2" d="M1728,1137s-42.32,103-67,142c0,0,95.14,75.05,217,0,0,0,96.16-62.79,89-169C1967,1110,1869.82,1164,1728,1137Zm15-47s109.55,20.89,218-25c0,0,135.26-60.52,122-240,0,0-9.67-162.836-140-207,0,0-111.69-43.365-227-6C1716,612,1818.19,818.644,1743,1090Zm-51-524s164.75-61.831,288,24c0,0-28.09-135.574-148-181,0,0-134.09-52.579-236,24C1596,433,1652.08,492.98,1692,566ZM516,478S288.953,602.686,425,877c0,0-7.717-120.429,67-206C492,671,466.893,562.645,516,478Zm95-32s35.866-38.713,90-71c0,0,22.041,35.242,36,53,0,0-26.857-14.978-39,7,0,0-9.5,22.008,18,37l14,7s-1.5.539-19.326-4.828C687.088,467.071,654.681,456.191,611,446Zm-51,49s-26.175,45.277-25,102c1.364,65.87,25.606,116.278,25.606,116.278S588.74,775.826,647,831c48.989,46.394,128.925,99.151,256,146,0,0,4.966,71.1,54.35,161.84,26.4,48.51,52.56,85.29,96.31,119.9,44.95,35.57,120.33,77.06,230.34,92.26,0,0,2.42,90.61,83,161,0,0,53.48,44.81,100,57,0,0,165.01,59.32,179,215,0,0,60.3-92.37,56-182,0,0-1.19-69.97-70-136,0,0-72.33-69.17-60-156l-33-50s-49.12,47.67-91,56c0,0-63.97,19.12-49-27,0,0,22.22-38.33,77-51,0,0-176,6-236-61,0,0-27.29-31.8,5-41,0,0,69.82-16.62,183,45,0,0-66.72-35.02-93-90,0,0-13.64-32.55,22-30,0,0,28.87,7.12,82,56,0,0-53.17-68.42-78-96,0,0-140,71.81-283,13,0,0-64.32-28.64-40-57,0,0,16.07-17.77,91-2,0,0,97.4,17.078,166,6,0,0-148.69-6.719-197-77,0,0-20.81-34.958,16-39,0,0,21.52-10.723,189,90,0,0-91.03-106.367-182-187,0,0-66.05,68.346-171,73,0,0-43.1-.427-34-33,0,0,5.467-35.094,151-53,0,0-50.12-1.2-127.853,4.612C899.593,762.568,827.16,773.923,802,775c0,0-67.3,1.523-65-29,0,0-5.809-42.89,111-47,0,0,76.662,2.046,156,21,0,0-77.542-21.574-140-52,0,0-34.342-21.018-13-43,0,0,15.491-8.134,43,3,0,0,80.149,33.183,153,75,0,0-80.424-70.723-117-95,0,0-119.221-.9-207,5,0,0-99.2,5.577-96-35,0,0-6.03-35.189,124-25,0,0,82,7.95,131,18,0,0-41.427-25.268-54-35C828,536,669.782,493.609,560,495ZM755,349s16.46,42.389,35,109c0,0,36.357,19.028,59,36,0,0-50.14-92.037-36-169C813,325,769.3,339.736,755,349ZM901,529s46.68,32.134,65,47c0,0-35.924-110.078-12-188,0,0,14.708-47.308,50-36,0,0,21.82,9.356,16,57,0,0-13.09,140.386-8,203,0,0,111.01,89.872,148,127,0,0-28.07-82.623-76-151,0,0-29.84-42.769-7-64,0,0,30.11-28.118,78,40,0,0,35.18,58.628,46,141,0,0-9.87-127.538,16-203,0,0,9.41-34.077,38-30,0,0,33.39,1.649,25,76,0,0-3.89,108.108-42,226,0,0,32.67-82.171,70-113,0,0,25.08-21.793,43-2,0,0,17.58,33.43-27,83,0,0-59.01,73.053-70,89,0,0,87.17,89,163,184,0,0-60.23-95.608-60-192,0,0,6.02-50.991,38-27,0,0,35.28,23.847,50,199,0,0-7.29-154.664,43-264,0,0,23.61-51.57,54-27,0,0,36.63,14.6-21,204,0,0-36.99,121.59-61,161,0,0,30.35,41,48,65,0,0-7.36-111.1,42-157,0,0,21.98-19.319,42-4,0,0,19.73,17.752,0,53,0,0-57.14,103.89-57,139,0,0,31.69-82.08,86-90,0,0,35.07-1.52,25,29,0,0-5.01,11.83-29,26-23.8,14.05-51.63,37.48-67,61,0,0,13.07,17.05,47,72,0,0,101.06-104.77,117-298,0,0,42.58-288.956-158-496,0,0-272.02-267.209-681-159,0,0,12.3,20.928,9,59C884,369,883.675,458.184,901,529ZM512,728s-82.781,95.074,0,328c0,0-18.667,53.6-80,70,0,0,32.711,20.08,88-2,0,0-31.645,84.33-108,162,0,0-24.468,16.97-4,37,0,0,25.206,31.96,82,51,0,0,4.391,92.47,56,183a413.109,413.109,0,0,1,26,92s2.81,48.45,41,65c0,0,35.2,22.26,140,0,0,0,208.025-39.76,365-163,0,0-83.18,135.82-180,182,0,0,52.59,156.5,58,232,0,0,13.26,94.92-59,174-44.589,48.8-112,93-112,93s119.793,1.09,334-137c0,0,211.56-160.06,459-19,0,0-159.92-154.86-219-480,0,0-123.94-63.27-155-205,0,0-302.6-13.15-382-379C862,1012,607.6,938.415,512,728Z"/>
</svg>
