<svg xmlns="http://www.w3.org/2000/svg" width="2400" height="2400" viewBox="0 0 2400 2400">
  <defs>
    <style>
      .cls-1 {
        fill: #0064a5;
        fill-rule: evenodd;
      }
    </style>
  </defs>
  <path id="颜色填充_3_拷贝" data-name="颜色填充 3 拷贝" class="cls-1" d="M1852.58,1050.77s-52.13,126.91-82.54,174.97c0,0,117.2,92.47,267.31,0,0,0,118.46-77.36,109.64-208.24C2146.99,1017.5,2027.28,1084.04,1852.58,1050.77Zm18.47-57.91s134.95,25.74,268.55-30.8c0,0,166.61-74.571,150.28-295.721,0,0-11.91-200.642-172.46-255.059,0,0-137.58-53.434-279.63-7.393C1837.79,403.883,1963.67,658.5,1871.05,992.86ZM1808.23,347.2s202.95-76.186,354.77,29.572c0,0-34.6-167.051-182.31-223.023,0,0-165.18-64.787-290.72,29.572C1689.97,183.324,1759.05,257.23,1808.23,347.2ZM359.569,238.772S79.881,392.406,247.47,730.408c0,0-9.506-148.389,82.534-253.827C330,476.581,299.076,343.068,359.569,238.772ZM476.6,199.342s44.181-47.7,110.867-87.484c0,0,27.151,43.425,44.346,65.305,0,0-33.083-18.455-48.042,8.625,0,0-11.7,27.118,22.174,45.591L623.186,240s-1.848.664-23.808-5.949C570.324,225.306,530.4,211.9,476.6,199.342ZM413.77,259.719s-32.243,55.789-30.8,125.681c1.681,81.163,31.542,143.274,31.542,143.274s34.658,77.071,106.426,145.054C581.289,730.894,679.759,795.9,836.3,853.625c0,0,6.118,87.613,66.951,199.415,32.521,59.77,64.752,105.09,118.633,147.74,55.38,43.83,148.24,94.95,283.75,113.68,0,0,2.98,111.65,102.25,198.38,0,0,65.88,55.21,123.18,70.23,0,0,203.27,73.09,220.5,264.92,0,0,74.29-113.82,68.99-224.26,0,0-1.47-86.21-86.23-167.57,0,0-89.1-85.23-73.91-192.22l-40.65-61.61s-60.51,58.74-112.1,69c0,0-78.81,23.57-60.36-33.27,0,0,27.37-47.23,94.85-62.84,0,0-216.81,7.39-290.72-75.16,0,0-33.62-39.19,6.16-50.52,0,0,86.01-20.47,225.43,55.45,0,0-82.19-43.15-114.56-110.9,0,0-16.8-40.112,27.1-36.965,0,0,35.56,8.77,101.01,69,0,0-65.5-84.306-96.08-118.289,0,0-172.46,88.486-348.62,16.018,0,0-79.235-35.29-49.27-70.234,0,0,19.79-21.895,112.1-2.464,0,0,119.98,21.042,204.48,7.393,0,0-183.16-8.279-242.67-94.877,0,0-25.64-43.074,19.71-48.055,0,0,26.51-13.213,232.82,110.9,0,0-112.14-131.061-224.2-230.416,0,0-81.36,84.215-210.647,89.949,0,0-53.087-.526-41.883-40.662,0,0,6.735-43.241,186.01-65.305,0,0-61.738-1.474-157.5,5.683C832.1,589.408,742.872,603.4,711.879,604.727c0,0-82.9,1.876-80.071-35.733,0,0-7.155-52.848,136.736-57.912,0,0,94.437,2.521,192.169,25.875,0,0-95.52-26.583-172.459-64.073,0,0-42.305-25.9-16.014-52.983,0,0,19.083-10.022,52.97,3.7,0,0,98.731,40.887,188.47,92.413,0,0-99.068-87.142-144.124-117.056,0,0-146.862-1.106-254.994,6.161,0,0-122.195,6.872-118.257-43.126,0,0-7.428-43.359,152.75-30.8,0,0,101.013,9.8,161.372,22.18,0,0-51.032-31.135-66.52-43.126C743.907,310.238,549.006,258.005,413.77,259.719Zm240.212-179.9s20.276,52.23,43.115,134.306c0,0,44.786,23.446,72.679,44.358,0,0-61.765-113.4-44.347-208.236C725.429,50.25,671.6,68.407,653.982,79.822Zm179.851,221.79s57.5,39.595,80.07,57.912c0,0-44.254-135.634-14.782-231.648,0,0,18.118-58.292,61.592-44.358,0,0,26.878,11.528,19.71,70.234,0,0-16.121,172.979-9.855,250.131,0,0,136.742,110.737,182.312,156.485,0,0-34.57-101.806-93.62-186.058,0,0-36.76-52.7-8.62-78.859,0,0,37.08-34.646,96.08,49.287,0,0,43.33,72.24,56.67,173.737,0,0-12.17-157.149,19.71-250.131,0,0,11.6-41.989,46.81-36.965,0,0,41.13,2.031,30.8,93.645,0,0-4.8,133.207-51.74,278.47,0,0,40.24-101.249,86.23-139.235,0,0,30.89-26.853,52.97-2.464,0,0,21.66,41.191-33.26,102.27,0,0-72.69,90.014-86.23,109.663,0,0,107.37,109.663,200.79,226.72,0,0-74.2-117.806-73.91-236.577,0,0,7.41-62.83,46.81-33.269,0,0,43.46,29.383,61.59,245.2,0,0-8.98-190.572,52.97-325.293,0,0,29.08-63.543,66.52-33.269,0,0,45.12,17.987-25.87,251.363,0,0-45.56,149.816-75.14,198.38,0,0,37.38,50.515,59.13,80.095,0,0-9.07-136.9,51.74-193.455,0,0,27.07-23.8,51.73-4.929,0,0,24.31,21.874,0,65.306,0,0-70.39,128.008-70.21,171.268,0,0,39.03-101.134,105.94-110.892,0,0,43.2-1.874,30.79,35.732,0,0-6.17,14.58-35.72,32.04-29.32,17.32-63.61,46.17-82.53,75.16,0,0,16.09,21.01,57.89,88.72,0,0,124.49-129.1,144.13-367.191,0,0,52.46-356.043-194.63-611.157,0,0-335.09-329.247-838.9-195.915,0,0,15.157,25.787,11.087,72.7C812.891,104.465,812.49,214.355,833.833,301.612Zm-479.192,245.2s-101.974,117.148,0,404.153c0,0-23,66.043-98.548,86.253,0,0,40.295,24.74,108.4-2.47,0,0-38.981,103.91-133.04,199.62,0,0-30.141,20.9-4.927,45.59,0,0,31.05,39.38,101.012,62.84,0,0,5.408,113.94,68.983,225.48,0,0,22.1,50.18,32.029,113.36,0,0,3.461,59.71,50.506,80.1,0,0,43.364,27.42,172.459,0,0,0,256.257-49,449.622-200.85,0,0-102.467,167.35-221.729,224.26,0,0,64.783,192.83,71.448,285.86,0,0,16.329,116.96-72.68,214.4C823.252,2345.54,740.212,2400,740.212,2400s147.567,1.34,411.438-168.81c0,0,260.62-197.22,565.42-23.41,0,0-197-190.81-269.77-591.44,0,0-152.68-77.96-190.94-252.6,0,0-372.767-16.2-470.57-466.989C785.79,896.751,472.4,806.082,354.641,546.814Z"/>
</svg>
